<svg width="17" height="16" viewBox="0 0 17 16" fill="none" xmlns="http://www.w3.org/2000/svg">
<g clip-path="url(#clip0_24_2383)">
<path d="M15.5 7H9.5V1C9.5 0.447719 9.05228 0 8.5 0C7.94772 0 7.5 0.447719 7.5 1V7H1.5C0.947719 7 0.5 7.44772 0.5 8C0.5 8.55228 0.947719 9 1.5 9H7.5V15C7.5 15.5523 7.94772 16 8.5 16C9.05228 16 9.5 15.5523 9.5 15V9H15.5C16.0523 9 16.5 8.55228 16.5 8C16.5 7.44772 16.0523 7 15.5 7Z" fill="white"/>
</g>
<defs>
<clipPath id="clip0_24_2383">
<rect width="16" height="16" fill="white" transform="translate(0.5)"/>
</clipPath>
</defs>
</svg>
